<?xml version="1.0" encoding="UTF-8" standalone="no"?>
<!DOCTYPE svg PUBLIC "-//W3C//DTD SVG 1.1//EN" "http://www.w3.org/Graphics/SVG/1.1/DTD/svg11.dtd">
<svg width="100%" height="100%" viewBox="0 0 256 256" version="1.1" xmlns="http://www.w3.org/2000/svg" xmlns:xlink="http://www.w3.org/1999/xlink" xml:space="preserve" xmlns:serif="http://www.serif.com/" style="fill-rule:evenodd;clip-rule:evenodd;stroke-linejoin:round;stroke-miterlimit:2;">
    <path d="M222.72,256L33.28,256C14.912,256 0,241.088 0,222.72L0,33.28C0,14.912 14.912,0 33.28,0L222.72,0C241.088,0 256,14.912 256,33.28L256,222.72C256,241.087 241.088,255.999 222.72,256ZM82,100L46,100L46,213L82,213L82,100ZM212,213C212.001,212.82 212.42,158.325 212,137.912C211.531,115.154 197.363,97.15 173,97C157.563,96.905 147.58,102.298 138.362,113.903L138.362,100L104,100L104,213L138.362,213L138.362,144.195C140.141,134.974 148.262,128 158,128C168.302,128 176.795,135.806 177.882,145.821L178,145.874L178,213L212,213ZM64,43C75.59,43 85,52.41 85,64C85,75.59 75.59,85 64,85C52.41,85 43,75.59 43,64C43,52.41 52.41,43 64,43Z" style="fill:white;"/>
</svg>
