<?xml version="1.0" encoding="UTF-8" standalone="no"?>
<!DOCTYPE svg PUBLIC "-//W3C//DTD SVG 1.1//EN" "http://www.w3.org/Graphics/SVG/1.1/DTD/svg11.dtd">
<svg width="100%" height="100%" viewBox="0 0 128 128" fill="#ffffff" version="1.1" xmlns="http://www.w3.org/2000/svg" xmlns:xlink="http://www.w3.org/1999/xlink" xml:space="preserve" xmlns:serif="http://www.serif.com/" style="fill-rule:evenodd;clip-rule:evenodd;stroke-linejoin:round;stroke-miterlimit:2;">
    <path d="M35,30L35,19.183C35,10.758 37.098,6.188 49.453,4.007C53.646,3.264 58.268,2.839 63.258,2.816C68.25,2.792 73.431,3.172 78.445,4.007C86.368,5.327 93,11.271 93,19.183L93,46.981C93,55.132 86.606,62 78.489,62L49.33,62C39.372,62.056 31,70.347 31,79.952L31,93L21.054,93C12.569,93 7.614,86.983 5.539,78.341C2.739,66.73 2.858,59.931 5.539,48.811C7.862,39.108 15.292,34 23.776,34L64,34L64,30L35,30ZM47.492,22.89C44.466,22.89 42.014,20.411 42.014,17.345C42.014,14.266 44.465,11.764 47.492,11.764C50.507,11.764 52.971,14.266 52.971,17.345C52.97,20.411 50.506,22.89 47.492,22.89Z"/>
    <path d="M107.682,34C116.178,34 120.183,40.363 122.281,48.811C125.198,60.584 125.32,69.218 122.281,78.34C119.329,87.224 116.166,93 107.682,93L64,93L64,97L93,97L93,108.126C93,116.549 85.862,120.831 78.513,122.96C67.456,126.168 58.704,125.677 49.462,122.96C41.745,120.69 35,116.036 35,108.126L35,80.326C35,72.326 41.342,65 49.33,65L78.489,65C88.206,65 97,57.031 97,46.981L97,34L107.682,34ZM80.326,104.417C83.353,104.417 85.805,106.896 85.805,109.964C85.805,113.04 83.354,115.543 80.326,115.543C77.311,115.543 74.848,113.041 74.848,109.964C74.848,106.896 77.311,104.417 80.326,104.417Z"/>
</svg>
