<?xml version="1.0" encoding="UTF-8" standalone="no"?><!DOCTYPE svg PUBLIC "-//W3C//DTD SVG 1.1//EN" "http://www.w3.org/Graphics/SVG/1.1/DTD/svg11.dtd"><svg width="100%" height="100%" viewBox="0 0 6000 300" version="1.1" xmlns="http://www.w3.org/2000/svg" xmlns:xlink="http://www.w3.org/1999/xlink" xml:space="preserve" xmlns:serif="http://www.serif.com/" style="fill-rule:evenodd;clip-rule:evenodd;stroke-linecap:round;stroke-linejoin:round;stroke-miterlimit:1.5;"><path d="M0,282.466l0.651,-39.646l90.039,4.15l85.802,3.03l89.487,-6.84l107.019,-19.48l94.862,-25.69l38.485,-18.32l151.326,-52.69l141.791,-42.64l94.455,-22.78l52.801,2.15l59.778,22.14l58.32,3.27l13.786,12.54l11.554,-6.85l28.366,10.36l23.881,-5.53l21.307,20.05l40.322,-2.62l25.37,15.38l16.38,1.84l129.784,86.91l143.961,-3.06l128.407,2.26l55.435,-16.2l50.638,1.99l46.214,-10.74l104.073,30.92l119.809,-59.16l118.431,-49.32l113.384,-41.99l37.777,28.04l48.024,14.12l20.604,0.04l49.693,31.34l36.591,32.53l58.733,4.92l37.909,-21.42l21.458,-5.83l7.813,6.88l16.651,-16.59l32.248,-0.49l17.375,-15.67l26.365,-8.12l33.535,14.73l32.227,-8.57l33.092,7.44l15.656,14.94l10.558,1.07l31.463,19.92l29.231,-11.66l11.936,10.32l82.775,-11.29l71.021,4.66l32.74,-11.44l18.562,1.01l42.795,-6.5l50.387,-25.43l38.452,-10.19l21.9,-22.44l11.443,-2.82l11.966,-15.06l12.086,7.55l31.866,-20.02l39.819,21.87l58.471,39.78l11.383,-3.83l21.659,6.21l23.891,-0.25l60.744,18.97l45.481,0.18l14.389,-4.63l30.347,3.79l44.283,-10.18l32.831,-1.72l36.822,-8.11l32.228,0.21l42.654,-13.82l40.252,-18.74l42.775,-17.26l42.936,9.09l42.886,21.11l22.765,9.17l33.957,15.83l47.461,-27.51l51.282,-26.29l53.283,-20.29c2.021,0 66.134,-11.78 66.134,-11.78l92.378,-41.35l50.759,18.16l99.558,62.45l86.003,60.99l109.753,67.86l36.24,11.15l13.011,9.45l54.108,2.84l34.67,11.32l90.568,0.5l83.158,-14.12l74.057,-24.42l100.513,-52.73l76.843,-31.87l97.838,-9.96l39.829,18.83l61.749,9.88l12.57,-5.83l89.763,9.47l39.206,13.05l72.921,-6.09l73.343,1.54l49.875,15.39l52.76,9.84l103.047,26.04l75.897,24.47l0,51.936" style="fill:none;stroke:#f20d0d;stroke-width:3.01px;"/></svg>