<?xml version="1.0" encoding="UTF-8" standalone="no"?>
<!DOCTYPE svg PUBLIC "-//W3C//DTD SVG 1.1//EN" "http://www.w3.org/Graphics/SVG/1.1/DTD/svg11.dtd">
<svg width="100%" height="100%" viewBox="0 0 5967 500" version="1.1" xmlns="http://www.w3.org/2000/svg" xmlns:xlink="http://www.w3.org/1999/xlink" xml:space="preserve" xmlns:serif="http://www.serif.com/" style="fill-rule:evenodd;clip-rule:evenodd;stroke-linecap:round;stroke-linejoin:round;stroke-miterlimit:1.5;">
    <g transform="matrix(1,0,0,1,0,-2245.8)">
        <path d="M0.647,2488.62L90.191,2492.77L175.521,2495.8L264.516,2488.96L370.947,2469.48L465.287,2443.79L503.56,2425.47L654.054,2372.78L795.065,2330.14L889,2307.36L941.511,2309.51L1000.96,2331.65L1058.96,2334.92L1072.67,2347.46L1084.16,2340.61L1112.37,2350.97L1136.12,2345.44L1157.31,2365.49L1197.41,2362.87L1222.64,2378.25L1238.93,2380.09L1368,2467L1511.17,2463.94L1638.87,2466.2L1694,2450L1744.36,2451.99L1790.32,2441.25L1893.82,2472.17L2012.97,2413.01L2130.75,2363.69L2243.51,2321.7L2281.08,2349.74L2328.84,2363.86L2349.33,2363.9L2398.75,2395.24L2435.14,2427.77L2493.55,2432.69L2531.25,2411.27L2552.59,2405.44L2560.36,2412.32L2576.92,2395.73L2608.99,2395.24L2626.27,2379.57L2652.49,2371.45L2685.84,2386.18L2717.89,2377.61L2750.8,2385.05L2766.37,2399.99L2776.87,2401.06L2808.16,2420.98L2837.23,2409.32L2849.1,2419.64L2931.42,2408.35L3002.05,2413.01L3034.61,2401.57L3053.07,2402.58L3095.63,2396.08L3145.74,2370.65L3183.98,2360.46L3205.76,2338.02L3217.14,2335.2L3229.04,2320.14L3241.06,2327.69L3272.75,2307.67L3312.35,2329.54L3370.5,2369.32L3381.82,2365.49L3403.36,2371.7L3427.12,2371.45L3487.53,2390.42L3532.76,2390.6L3547.07,2385.97L3577.25,2389.76L3621.29,2379.58L3653.94,2377.86L3690.56,2369.75L3722.61,2369.96L3765.03,2356.14L3805.06,2337.4L3847.6,2320.14L3890.3,2329.23L3932.95,2350.34L3955.59,2359.51L3989.36,2375.34L4036.56,2347.83L4087.56,2321.54L4140.55,2301.25C4142.56,2301.25 4206.32,2289.47 4206.32,2289.47L4298.19,2248.12L4348.67,2266.28L4447.68,2328.73L4533.21,2389.72L4642.36,2457.58L4678.4,2468.73L4691.34,2478.18L4745.15,2481.02L4779.63,2492.34L4869.7,2492.84L4952.4,2478.72L5026.05,2454.3L5126.01,2401.57L5202.43,2369.7L5299.73,2359.74L5339.34,2378.57L5400.75,2388.45L5413.25,2382.62L5502.52,2392.09L5541.51,2405.14L5614.03,2399.05L5686.97,2400.59L5736.57,2415.98L5789.04,2425.82L5891.52,2451.86L5967,2476.33" style="fill:none;stroke:white;stroke-width:3px;"/>
    </g>
</svg>
